<svg version="1.1" id="Layer_1" xmlns="http://www.w3.org/2000/svg" xmlns:xlink="http://www.w3.org/1999/xlink" x="0px" y="0px"
	 width="100%" viewBox="0 0 1024 672" enable-background="new 0 0 1024 672" xml:space="preserve">
<path fill="#000000" opacity="1.000000" stroke="none"
	d="
M424.132446,357.839905 
	C422.807861,368.121216 424.754761,377.905365 424.282593,387.701599 
	C424.163422,390.173950 425.326050,391.636566 427.414215,392.867737 
	C438.323059,399.299561 449.201721,398.289307 458.751099,389.920410 
	C463.748352,385.540924 467.588348,380.056122 472.070984,375.491333 
	C474.752625,376.217163 475.502808,378.261017 476.735870,379.753906 
	C490.444916,396.351440 512.397217,398.606049 529.255188,385.144379 
	C535.032410,380.531067 540.086365,375.295441 544.002625,368.981750 
	C544.943909,367.464233 545.705688,365.712677 547.496826,364.790771 
	C549.666199,365.501343 550.213623,367.605347 551.199341,369.241516 
	C554.919189,375.415924 559.199524,381.122772 564.566833,385.969574 
	C573.286743,393.843903 583.434570,394.868958 593.520447,388.895752 
	C601.695923,384.053925 607.833801,377.026337 613.864746,369.889099 
	C615.130493,368.391113 616.334717,366.841125 617.682007,365.173065 
	C620.625732,366.545776 621.615967,369.192566 623.343079,371.091736 
	C632.989685,381.699554 644.075317,389.273651 659.215210,388.929871 
	C663.158936,388.840302 664.681885,387.534393 664.836548,383.383545 
	C666.941345,326.896210 623.730042,273.242828 568.056885,263.352936 
	C532.387878,257.016602 499.949432,264.347351 470.862061,286.088440 
	C468.145508,288.118927 459.815674,289.626709 452.566040,289.450806 
	C452.260895,286.975037 454.375092,286.045807 455.737152,284.829712 
	C479.865784,263.286621 507.911835,251.449280 540.443054,250.590088 
	C578.083130,249.595963 610.411011,262.387482 637.081482,288.686615 
	C658.400757,309.709106 670.661377,335.470215 674.459045,365.305389 
	C683.356506,435.206818 635.227112,499.894684 564.825562,511.065948 
	C493.762970,522.342163 427.299072,474.265778 415.041016,403.016937 
	C413.720734,395.342804 413.126404,387.451294 413.113159,379.659058 
	C412.975128,298.509094 413.036163,217.358810 413.011078,136.208603 
	C413.007294,123.880219 412.861511,111.551727 412.744385,99.223640 
	C412.720215,96.677887 412.788116,94.162476 414.603577,92.165894 
	C415.861237,90.782845 416.571747,87.996536 418.998779,88.894012 
	C421.306793,89.747498 423.203949,91.617188 423.366425,94.478043 
	C423.423065,95.475304 423.406982,96.476692 423.423737,97.476212 
	C424.678558,172.272491 424.027435,247.074890 424.141174,321.874817 
	C424.159180,333.703613 424.145325,345.532471 424.132446,357.839905 
M644.275574,448.783905 
	C654.683533,433.250366 661.242615,416.295898 663.874451,396.477936 
	C656.517639,402.942810 649.792053,407.908234 640.738892,408.412933 
	C630.845703,408.964417 624.730896,403.351166 619.689087,395.732941 
	C598.647705,427.149750 570.721008,427.515167 547.437866,401.713074 
	C537.490173,413.443298 526.028381,422.537415 509.764954,423.373016 
	C493.380707,424.214874 481.110992,416.655457 471.075928,404.377777 
	C457.486969,419.611450 442.815613,417.518250 426.949585,407.793091 
	C430.987335,425.116547 437.962341,439.834717 447.781738,453.311829 
	C449.809631,456.095062 452.124603,456.993866 455.392853,456.885437 
	C473.035187,456.300354 487.457245,449.014374 499.263184,436.135315 
	C500.241608,435.067963 500.822540,433.508514 502.702087,433.305847 
	C505.234924,434.865173 506.839355,437.469269 508.848053,439.653717 
	C515.579224,446.973694 523.247986,453.022461 532.364197,457.089844 
	C539.511169,460.278595 546.957703,461.578979 554.759399,460.156494 
	C568.913330,457.575867 578.315796,448.522034 586.146790,437.254181 
	C587.314697,435.573730 587.794495,433.162720 590.655457,432.504761 
	C595.644531,439.229065 600.028503,446.475067 605.940002,452.652008 
	C616.938660,464.144623 636.558228,463.608429 644.275574,448.783905 
M537.728882,501.686249 
	C566.455566,502.918732 592.493347,495.362305 615.692505,477.802002 
	C605.692932,479.229004 597.259338,476.285492 590.214600,469.197906 
	C577.064392,481.851532 561.926514,488.563080 544.008301,488.102112 
	C525.465271,487.625122 511.740082,478.262360 501.021027,463.433136 
	C496.898438,468.549469 492.987305,472.834015 487.281647,474.969055 
	C481.836639,477.006592 476.179199,476.286774 470.109039,476.115387 
	C490.106964,491.580566 512.214783,499.861694 537.728882,501.686249 
z"/>
</svg>