<svg version="1.1" id="Layer_1" xmlns="http://www.w3.org/2000/svg" xmlns:xlink="http://www.w3.org/1999/xlink" x="0px" y="0px"
	 width="100%" viewBox="0 0 1008 1024" enable-background="new 0 0 1008 1024" xml:space="preserve">
<path fill="#000000" opacity="1.000000" stroke="none" 
	d="
M636.283020,579.177368 
	C635.547791,580.714050 634.976990,581.918823 634.351685,583.094727 
	C628.848328,593.445007 628.319214,590.733276 636.780640,599.667969 
	C639.526062,602.566895 642.731445,605.100647 645.105164,608.267212 
	C650.713928,615.749023 650.253296,624.322144 643.834106,630.998108 
	C641.081116,633.861267 641.218872,635.661621 643.950378,638.349854 
	C656.302795,650.506836 668.528381,662.793762 680.709900,675.122498 
	C682.845825,677.284241 684.868958,677.719360 687.837036,676.951416 
	C707.835205,671.777039 727.914062,666.913208 747.898499,661.687561 
	C752.348633,660.523987 755.570862,661.474548 758.694946,664.627014 
	C774.762634,680.840942 790.862793,697.023682 807.080200,713.087524 
	C810.192566,716.170471 810.989258,719.543518 810.007385,723.529541 
	C804.674133,745.180176 799.282288,766.816345 793.955078,788.468384 
	C792.978882,792.436340 790.629883,794.801270 786.655457,795.787903 
	C765.018494,801.159302 743.398621,806.599792 721.765015,811.984802 
	C717.594971,813.022949 714.110840,812.176636 710.895752,808.909302 
	C695.116760,792.874268 679.216919,776.956665 663.231567,761.127014 
	C659.613647,757.544373 658.891907,754.011963 660.214600,749.010376 
	C665.444580,729.232727 670.147888,709.316223 675.156616,689.479004 
	C675.796570,686.944397 675.548828,685.008667 673.662964,683.134521 
	C661.014709,670.564941 648.385193,657.976013 635.823914,645.319641 
	C633.559631,643.038208 631.953674,643.212646 629.567932,645.336853 
	C620.882568,653.069885 611.707520,652.660034 603.431702,644.454712 
	C600.118225,641.169434 596.629944,638.027893 593.610596,634.488770 
	C591.080017,631.522522 589.030640,631.808533 586.042908,633.808350 
	C575.315063,640.988647 563.883789,646.755432 551.171570,649.558044 
	C547.953369,650.267578 546.809265,651.996277 546.947754,655.179932 
	C547.121521,659.171631 547.003662,663.177368 546.964966,667.176636 
	C546.851135,678.948669 541.106140,686.191345 529.485596,688.720215 
	C526.614502,689.345093 525.147888,690.179565 525.058594,693.418579 
	C524.576660,710.898560 524.003052,728.377869 523.203735,745.845703 
	C523.017334,749.917664 524.496460,752.192322 527.913330,754.197876 
	C543.861450,763.558472 559.590271,773.294495 575.590149,782.563782 
	C581.096863,785.754028 583.546570,789.623901 583.438599,796.190430 
	C583.082458,817.849731 583.190247,839.519348 583.378296,861.182800 
	C583.422852,866.314758 581.517334,869.482849 577.137817,872.064575 
	C558.625854,882.977112 540.221252,894.073914 521.875488,905.264221 
	C517.392761,907.998596 513.555969,908.161743 508.932800,905.320374 
	C490.624542,894.068604 472.180206,883.034424 453.658386,872.136902 
	C449.231415,869.532288 447.509552,866.220703 447.549652,861.156982 
	C447.725067,838.993286 447.771027,816.826172 447.550049,794.663513 
	C447.496399,789.283142 449.593048,785.988586 454.041229,783.349487 
	C472.094269,772.638672 490.002350,761.683228 508.076294,751.008362 
	C511.331512,749.085815 512.704651,746.919556 512.766968,743.087036 
	C513.034973,726.600220 513.579651,710.117249 514.128540,693.636353 
	C514.225464,690.726929 513.862000,689.091675 510.272430,688.864319 
	C497.063141,688.027710 490.185028,680.634521 489.806671,667.283447 
	C489.688690,663.120117 489.674408,658.948853 489.785706,654.785828 
	C489.859711,652.017822 488.858795,650.519958 486.025543,649.900024 
	C470.921722,646.594971 456.777344,640.822632 443.578613,632.796448 
	C441.186768,631.341980 439.697479,631.947632 437.977631,633.740173 
	C434.401855,637.467102 430.732819,641.107422 427.028229,644.707397 
	C419.177734,652.336182 410.556061,652.952515 401.919006,646.198364 
	C399.529572,644.329895 398.046326,644.405945 396.019958,646.443115 
	C383.209930,659.321716 370.380463,672.181946 357.438416,684.927368 
	C355.199402,687.132446 355.693024,689.275330 356.310516,691.761841 
	C361.075256,710.947998 365.671722,730.177063 370.608887,749.318420 
	C371.885956,754.269592 370.923126,757.939392 367.341675,761.486084 
	C351.592743,777.081726 335.913544,792.749023 320.345398,808.524902 
	C316.756256,812.161987 312.887299,813.025696 308.102814,811.818726 
	C287.298828,806.570435 266.486572,801.352539 245.639801,796.277710 
	C240.514908,795.030151 237.770264,792.223816 236.531204,787.019287 
	C231.562271,766.148132 226.302521,745.346008 221.125320,724.524597 
	C220.006378,720.024475 220.502304,716.159424 224.054840,712.645996 
	C239.929077,696.946472 255.707855,681.149292 271.399475,665.267212 
	C274.928223,661.695557 278.458954,660.653015 283.485382,661.962402 
	C303.628784,667.209717 323.897034,671.976379 344.071594,677.107422 
	C347.581421,678.000122 349.967682,677.333069 352.499023,674.759338 
	C364.300964,662.759705 376.213928,650.866882 388.238281,639.090149 
	C390.787567,636.593384 390.569519,635.058350 388.202942,632.596252 
	C379.429230,623.468567 379.678009,613.871460 388.538269,604.967651 
	C392.527893,600.958435 398.178406,597.423584 399.815369,592.573303 
	C401.555237,587.418030 395.754913,582.598694 393.373901,577.600098 
	C388.617462,567.614746 384.743988,557.388611 382.689880,546.522644 
	C382.073822,543.263794 380.421692,542.117737 377.183472,542.267456 
	C372.693481,542.474976 368.186310,542.348877 363.686981,542.309021 
	C353.203796,542.216125 344.913788,535.145325 344.011322,524.797363 
	C343.648376,520.635803 341.877808,519.887085 338.353516,519.905334 
	C321.855194,519.990906 305.355713,520.000183 288.857727,519.883240 
	C285.605896,519.860229 283.704803,521.124878 282.079285,523.870361 
	C271.555298,541.645508 260.748047,559.254456 250.361526,577.108643 
	C246.990646,582.903198 242.983963,585.565186 235.965714,585.421692 
	C214.309479,584.979004 192.638550,585.192383 170.973846,585.282227 
	C166.739578,585.299805 163.633865,583.959045 161.422424,580.233826 
	C150.026459,561.036804 138.622314,541.843689 127.041321,522.758301 
	C124.636223,518.794739 124.839775,515.443726 127.149414,511.621399 
	C138.520767,492.802490 149.821777,473.940460 161.022522,455.019592 
	C163.319275,451.139771 166.319870,449.552734 170.825455,449.576111 
	C193.489746,449.693665 216.156067,449.706543 238.819351,449.500397 
	C243.609360,449.456848 246.624603,451.271820 248.970612,455.247314 
	C258.030792,470.600555 267.429474,485.758545 276.241455,501.251282 
	C279.393494,506.793060 282.941589,509.201080 289.578125,508.980286 
	C305.559082,508.448547 321.570648,508.738708 337.568359,508.876923 
	C341.608917,508.911835 343.762451,508.340790 344.179535,503.362396 
	C345.038177,493.112671 353.534180,486.060455 363.963409,485.905273 
	C368.628815,485.835846 373.296539,485.812439 377.961700,485.877106 
	C380.691223,485.914917 382.141357,484.893555 382.855377,482.073883 
	C386.033234,469.523987 391.399261,457.881805 398.607910,447.173065 
	C401.124695,443.434204 400.551361,441.009857 397.423767,438.261475 
	C394.425537,435.626801 391.751007,432.626465 388.895721,429.826050 
	C379.547638,420.657562 379.375000,411.622284 388.370789,401.933685 
	C389.033997,401.219421 389.596436,400.411591 390.817841,398.879303 
	C384.785828,393.047607 378.770874,387.323639 372.860077,381.494110 
	C365.859680,374.590057 358.822418,367.715118 352.058929,360.583069 
	C349.169800,357.536530 346.360016,356.800903 342.295685,357.848785 
	C322.650055,362.913849 302.909973,367.612701 283.263000,372.672791 
	C278.527039,373.892548 275.043640,373.014038 271.584808,369.506226 
	C256.023956,353.724854 240.365677,338.036560 224.540787,322.520477 
	C220.582275,318.639191 219.779099,314.748840 221.131775,309.493774 
	C226.229980,289.687500 231.200882,269.842377 235.759949,249.906738 
	C237.324020,243.067444 240.576233,239.393768 247.571472,237.787262 
	C268.176575,233.055145 288.660980,227.793396 309.164948,222.628998 
	C313.110809,221.635147 316.259491,222.321396 319.167084,225.243362 
	C335.506470,241.663300 351.885376,258.044281 368.333557,274.355103 
	C371.648285,277.642181 371.651733,281.184448 370.592987,285.364990 
	C365.654297,304.866364 360.942108,324.425049 356.006958,343.927307 
	C355.285553,346.778076 355.340820,348.933838 357.582764,351.144592 
	C370.634399,364.014648 383.577484,376.994781 396.567413,389.927521 
	C397.027313,390.385376 397.593689,390.736359 397.989197,391.043091 
	C399.766479,391.096252 400.439667,389.763733 401.397858,388.916809 
	C409.571045,381.692535 419.680634,382.101929 427.268524,389.971222 
	C430.621857,393.448853 434.048645,396.856262 437.372223,400.361786 
	C439.345367,402.442932 441.301025,403.023224 443.972290,401.443298 
	C457.403412,393.499481 471.698608,387.714386 487.020721,384.561523 
	C489.456848,384.060211 490.684235,382.627045 490.629303,379.979736 
	C490.525696,374.982452 490.602356,369.981110 490.626312,364.981567 
	C490.678223,354.152557 498.017029,346.215271 508.849548,346.001373 
	C513.628723,345.907043 514.470154,344.399475 514.293457,339.768005 
	C513.709229,324.453461 513.578125,309.110535 513.759033,293.784241 
	C513.817444,288.833710 512.366577,286.024139 508.005585,283.493622 
	C489.850433,272.958679 471.995819,261.907135 453.907440,251.254807 
	C449.346924,248.569107 447.514954,245.154694 447.562897,239.872040 
	C447.765564,217.542099 447.742828,195.208847 447.605103,172.878036 
	C447.575897,168.144333 449.401733,165.070160 453.387360,162.706787 
	C472.014862,151.661133 490.631775,140.594482 509.106506,129.296585 
	C513.532104,126.590210 517.240173,126.610268 521.596802,129.262650 
	C540.091614,140.522675 558.659790,151.663925 577.293213,162.693161 
	C581.674194,165.286285 583.394165,168.698135 583.355591,173.752701 
	C583.189270,195.583176 583.118713,217.417709 583.393372,239.245972 
	C583.466003,245.018463 581.267700,248.596268 576.509705,251.412216 
	C560.452393,260.915436 544.542175,270.667725 528.457336,280.123413 
	C525.336487,281.958099 524.040161,283.999939 524.133240,287.650726 
	C524.587708,305.470978 524.864746,323.296631 525.055969,341.121979 
	C525.091736,344.455505 526.258484,345.602783 529.627075,346.079987 
	C539.853210,347.528564 546.529236,355.251556 546.934143,365.623810 
	C547.116028,370.283508 547.069458,374.956604 546.978882,379.620758 
	C546.922180,382.536560 547.929077,384.196716 550.972046,384.927582 
	C563.918701,388.037140 575.685364,393.859100 586.726624,401.171692 
	C589.347168,402.907257 591.198303,402.524811 593.236755,400.375397 
	C596.675964,396.748840 600.242249,393.241791 603.789307,389.718842 
	C611.837097,381.725830 622.276733,381.763184 630.399414,389.788574 
	C635.108459,394.441254 635.116943,394.449738 639.668945,389.896149 
	C650.979187,378.581970 662.239014,367.216858 673.620178,355.974548 
	C675.992676,353.631012 676.601013,351.587952 675.693970,348.107574 
	C670.074951,326.547638 664.882568,304.876831 659.462585,283.264404 
	C658.527893,279.537231 659.877808,276.709564 662.345032,274.235229 
	C678.698608,257.834747 695.099060,241.481110 711.451233,225.079254 
	C714.339111,222.182571 717.644775,221.478317 721.523987,222.462845 
	C742.824036,227.868652 764.107666,233.343628 785.459778,238.536392 
	C790.470459,239.754959 793.096558,242.315765 794.294800,247.323929 
	C799.322998,268.340851 804.581238,289.302979 809.823669,310.268097 
	C810.964233,314.829468 810.324036,318.572296 806.775696,322.073761 
	C790.644409,337.992004 774.644958,354.044586 758.693115,370.142975 
	C755.624512,373.239655 752.329590,373.879669 748.243530,372.854553 
	C729.542236,368.162445 710.806946,363.605865 692.097778,358.944733 
	C689.603210,358.323242 687.275146,357.667358 685.128357,359.820862 
	C671.256165,373.736511 657.356018,387.624420 643.650879,401.335510 
	C643.729736,402.083496 643.654419,402.480621 643.814026,402.723114 
	C651.468262,414.345673 650.745117,421.199097 640.851807,430.917297 
	C637.998779,433.719879 635.331970,436.728363 632.332642,439.360931 
	C629.791321,441.591522 629.904175,443.510712 631.678101,446.180176 
	C639.010498,457.214874 644.897583,468.943909 647.800110,481.978607 
	C648.425964,484.789276 649.972412,485.752991 652.756653,485.649475 
	C656.916931,485.494781 661.087891,485.598389 665.253967,485.634155 
	C677.005737,485.735077 684.099548,491.140625 686.642334,502.544678 
	C687.386047,505.880280 688.773071,506.728760 691.953430,506.870453 
	C709.579224,507.655670 727.198975,508.599518 744.810425,509.660461 
	C748.169983,509.862823 749.949158,508.468872 751.560791,505.757385 
	C761.350159,489.288269 771.390137,472.967010 781.064514,456.431427 
	C783.909546,451.568634 787.375977,449.609375 793.112244,449.462860 
	C814.607910,448.913849 836.100525,449.248260 857.592102,449.034332 
	C863.778320,448.972748 867.655029,451.203186 870.821106,456.694885 
	C881.385437,475.019104 892.393005,493.089966 903.392761,511.159271 
	C905.936646,515.338074 906.132141,519.023499 903.568970,523.248596 
	C892.163757,542.048828 880.845764,560.902893 869.645386,579.825745 
	C867.335754,583.727844 864.318237,585.335632 859.852966,585.315491 
	C837.188354,585.213135 814.522278,585.158813 791.858704,585.341248 
	C786.505005,585.384338 783.699280,582.588379 781.256042,578.479309 
	C770.784241,560.867432 760.120422,543.368835 749.773010,525.684753 
	C747.485718,521.775696 744.874939,520.209656 740.269165,520.091125 
	C724.122925,519.675415 707.984009,518.843750 691.856567,517.922546 
	C688.159607,517.711365 686.960876,518.629333 686.856445,522.461426 
	C686.520813,534.783569 678.444763,542.297974 666.034607,542.335449 
	C661.868225,542.348083 657.693542,542.512207 653.538086,542.301941 
	C650.050720,542.125488 648.508972,543.520386 647.775208,546.931702 
	C645.385559,558.042542 641.835144,568.778809 636.283020,579.177368 
M532.761658,645.881470 
	C532.816833,641.688782 534.697632,638.620728 538.918274,637.984680 
	C556.362122,635.355835 571.245789,627.100403 585.511841,617.343201 
	C590.547852,613.898804 592.881531,614.206055 597.354370,618.570129 
	C602.716980,623.802368 608.092407,629.025757 613.307312,634.403259 
	C615.998474,637.178345 618.295959,637.151855 620.917664,634.421997 
	C624.379883,630.817017 627.971436,627.336365 631.501282,623.796143 
	C635.731079,619.553955 635.762756,618.602051 631.648438,614.437744 
	C626.846680,609.577637 621.991821,604.770020 617.187134,599.912781 
	C612.085815,594.755676 611.966858,592.989502 615.809204,586.911743 
	C625.607544,571.412781 632.527588,554.766357 635.665588,536.630188 
	C636.735840,530.444824 638.690979,528.722351 645.013123,528.640930 
	C652.011353,528.550781 659.011780,528.632019 666.010254,528.552856 
	C670.420837,528.502991 672.816345,526.327393 672.783752,521.748291 
	C672.751648,517.249084 672.816406,512.749207 672.783203,508.250031 
	C672.733459,501.493744 670.669189,499.471741 663.709229,499.416321 
	C657.043579,499.363281 650.375244,499.279449 643.712158,499.412720 
	C639.265564,499.501648 636.523865,497.293304 635.942810,493.220703 
	C633.493408,476.053223 625.162842,461.550476 615.778503,447.480591 
	C612.018188,441.842712 612.216797,439.844269 617.107117,434.925140 
	C622.157959,429.844604 627.140015,424.690308 632.329651,419.755005 
	C635.303528,416.926971 635.279846,414.523621 632.379089,411.748901 
	C628.526367,408.063721 624.760193,404.284424 621.047729,400.457367 
	C618.237427,397.560272 615.687622,397.752289 612.911377,400.536682 
	C607.970764,405.491791 602.854248,410.271667 597.923340,415.236115 
	C592.740417,420.454224 590.820190,420.760010 584.581360,416.514648 
	C570.820557,407.150818 556.278015,399.684448 539.592285,397.022247 
	C535.052551,396.297943 532.742310,393.232574 532.749268,388.539276 
	C532.759644,381.540070 532.808533,374.539734 532.705505,367.541901 
	C532.620422,361.762939 530.993652,360.194611 525.158508,360.083649 
	C520.827148,360.001251 516.492859,360.034607 512.160278,360.070831 
	C505.251373,360.128601 503.467438,362.147980 503.645874,369.221161 
	C503.809723,375.715179 503.820679,382.213684 503.847504,388.710419 
	C503.868042,393.690887 501.206085,396.377838 496.413788,397.160309 
	C477.733093,400.210388 460.524231,407.045746 444.764191,417.478058 
	C440.571686,420.253296 437.101654,419.842712 433.650604,416.310242 
	C428.410553,410.946625 423.035431,405.715210 417.742340,400.403046 
	C414.992065,397.642822 412.314117,397.534637 409.532959,400.368408 
	C405.914612,404.055267 402.293579,407.742249 398.577881,411.329926 
	C395.554688,414.248962 395.562347,416.912201 398.598236,419.853241 
	C403.384949,424.490387 408.018585,429.285309 412.731537,433.998932 
	C418.692535,439.960815 418.876129,441.979889 413.939270,448.999512 
	C405.028107,461.670074 398.331635,475.326874 395.407471,490.652802 
	C393.909210,498.505249 392.075439,500.110382 384.119598,500.139648 
	C377.953705,500.162354 371.787292,500.085205 365.621613,500.126190 
	C359.358551,500.167786 358.199738,501.277222 358.106384,507.319977 
	C358.036865,511.818420 358.027832,516.319824 358.103027,520.818054 
	C358.204193,526.866455 359.161804,527.830444 365.104126,527.881836 
	C371.936249,527.940918 378.772614,527.778687 385.600647,527.958740 
	C391.310852,528.109314 394.435272,530.484863 395.142944,535.603882 
	C397.770660,554.611450 404.817963,571.831909 415.435028,587.719116 
	C418.566132,592.404541 418.101990,595.179810 414.107544,599.231079 
	C409.310852,604.096008 404.477875,608.925293 399.694763,613.803528 
	C395.111633,618.477783 395.114471,619.513306 399.549652,624.013550 
	C402.824921,627.336853 406.217072,630.553284 409.355988,634.000427 
	C412.453918,637.402588 415.031189,637.131653 418.084473,633.840515 
	C423.068359,628.468445 428.304810,623.328552 433.490082,618.146179 
	C436.843475,614.794678 440.339874,614.082520 444.650482,616.919128 
	C460.543823,627.377808 477.748627,634.687622 496.629120,637.760681 
	C501.214020,638.507019 503.726196,641.021118 503.709167,645.874573 
	C503.684052,653.037720 503.817169,660.201355 503.821320,667.364746 
	C503.824097,672.219116 505.701416,674.481445 510.578613,674.681458 
	C515.569885,674.886169 520.577393,674.837524 525.574097,674.729431 
	C530.824280,674.615906 532.635254,672.739868 532.714661,667.304382 
	C532.814453,660.473267 532.743469,653.639526 532.761658,645.881470 
M231.500046,510.679321 
	C242.576340,510.679321 253.652649,510.679321 265.052155,510.679321 
	C264.667389,509.449524 264.608032,508.949646 264.373169,508.553894 
	C256.043274,494.516083 247.654343,480.513062 239.392120,466.435638 
	C237.903687,463.899597 235.929749,463.286194 233.194901,463.299255 
	C217.367111,463.374878 201.538666,463.311096 185.710510,463.334930 
	C184.447891,463.336853 183.014084,462.951141 181.947739,464.263550 
	C182.018875,464.712494 181.960526,465.266022 182.188461,465.649292 
	C190.615524,479.818695 199.089828,493.960052 207.497360,508.140991 
	C208.807571,510.350952 210.705750,510.717560 213.006042,510.691315 
	C218.836700,510.624786 224.668701,510.675171 231.500046,510.679321 
M178.598709,486.838593 
	C175.266876,481.647003 172.700195,475.906769 168.513184,471.286499 
	C167.564468,472.013672 167.214661,472.159241 167.056198,472.420776 
	C158.438461,486.643372 149.851151,500.884430 141.217804,515.097534 
	C139.947525,517.188782 140.781815,518.834167 141.861343,520.623962 
	C147.703857,530.310913 153.424927,540.071716 159.332474,549.718506 
	C162.154037,554.326111 164.419495,559.332214 168.135910,563.483215 
	C168.826324,562.889709 169.310822,562.639526 169.552231,562.241760 
	C178.184128,548.021301 186.766037,533.770386 195.434753,519.572510 
	C196.750748,517.417053 195.816010,515.787659 194.784821,514.055542 
	C189.509552,505.194214 184.225586,496.338074 178.598709,486.838593 
M490.343109,777.899292 
	C481.923920,782.958984 473.567749,788.128418 465.050262,793.016785 
	C462.202484,794.651123 461.243469,796.634033 461.272583,799.842224 
	C461.414612,815.496277 461.326141,831.152222 461.371429,846.807373 
	C461.375488,848.210266 460.797241,849.832397 462.316284,851.004761 
	C462.783081,850.872681 463.307007,850.835022 463.709778,850.594421 
	C477.720490,842.229675 491.683868,833.784607 505.752625,825.518921 
	C508.402374,823.962036 508.705627,821.868896 508.694489,819.243896 
	C508.642181,806.919739 508.675354,794.595215 508.677429,782.270813 
	C508.678223,777.680115 508.677582,773.089417 508.677582,767.798157 
	C501.864624,770.623962 496.568115,774.362854 490.343109,777.899292 
M838.769714,482.289215 
	C842.254395,476.310211 845.739075,470.331177 849.085815,464.588837 
	C848.179871,463.252930 847.286987,463.393768 846.490723,463.392609 
	C829.850769,463.368073 813.210571,463.410767 796.571228,463.306366 
	C793.767334,463.288757 792.460754,464.729004 791.186584,466.885406 
	C783.486511,479.917175 775.674194,492.882629 767.956116,505.903870 
	C767.177002,507.218292 765.591553,508.353882 766.509766,510.641693 
	C784.052856,510.641693 801.670959,510.624359 819.288940,510.663849 
	C821.479675,510.668762 822.501709,509.394531 823.491943,507.733032 
	C828.431396,499.444580 833.434204,491.193848 838.769714,482.289215 
M501.360626,263.095093 
	C503.596344,263.960358 505.216705,266.241425 508.161011,266.236053 
	C508.353180,265.225464 508.629547,264.445190 508.631134,263.664429 
	C508.664337,247.170456 508.610046,230.676041 508.725586,214.182770 
	C508.747101,211.117340 506.987671,209.771683 504.758606,208.442505 
	C492.315186,201.022568 479.906158,193.544830 467.453033,186.141281 
	C465.809235,185.164017 464.321533,183.626236 461.806335,183.969437 
	C461.645416,185.072556 461.345703,186.177765 461.343689,187.283493 
	C461.314392,203.444275 461.412292,219.605972 461.254059,235.765244 
	C461.221344,239.107269 463.133667,240.437134 465.487305,241.829987 
	C477.241547,248.786041 488.977081,255.773758 501.360626,263.095093 
M251.340668,251.685150 
	C249.684128,252.592682 249.377838,254.254059 248.965775,255.876160 
	C245.694153,268.755096 242.358154,281.618042 239.166031,294.516602 
	C238.364197,297.756592 236.724182,300.938416 237.593735,304.977448 
	C254.364136,300.784393 270.800568,296.678711 287.234039,292.561401 
	C289.431183,292.010925 290.328064,290.501953 290.844910,288.318298 
	C292.682587,280.553741 294.762573,272.846924 296.700317,265.105591 
	C298.824432,256.619629 300.892670,248.119675 303.200043,238.754028 
	C285.267487,242.231262 268.769318,247.253281 251.340668,251.685150 
M500.236725,150.797180 
	C489.789337,157.108032 479.341980,163.418884 468.048248,170.240982 
	C483.930298,179.753769 498.767334,188.628464 513.587280,197.531647 
	C515.605103,198.743851 517.108948,197.502457 518.637634,196.593811 
	C531.659729,188.853577 544.670837,181.094666 557.647888,173.279282 
	C559.001526,172.464081 560.613647,171.726715 561.149414,169.432846 
	C550.690491,163.124725 540.227661,156.681870 529.637085,150.456238 
	C511.626831,139.868988 518.798218,140.313782 500.236725,150.797180 
M302.508850,792.595459 
	C298.676086,777.455017 294.734711,762.340637 291.096985,747.153503 
	C290.315887,743.892517 288.765076,742.434021 285.639252,741.684021 
	C277.881744,739.822632 270.203156,737.635132 262.472168,735.659729 
	C254.177246,733.540161 245.858658,731.513245 237.835724,729.516846 
	C236.604721,730.911194 237.063492,731.945496 237.291077,732.849731 
	C241.262756,748.630249 245.291107,764.396606 249.276871,780.173645 
	C249.740387,782.008423 250.927567,783.069580 252.633820,783.493530 
	C268.281097,787.381165 283.938019,791.229919 299.594238,795.081604 
	C301.151215,795.464600 302.704071,795.761658 302.508850,792.595459 
M690.458313,702.293579 
	C689.409424,701.646240 688.924622,700.002441 687.001465,700.493835 
	C686.544434,701.788330 685.933899,703.148682 685.581360,704.572998 
	C682.031128,718.918335 678.631470,733.302185 674.923340,747.606262 
	C674.049927,750.975281 674.734619,753.255493 677.127686,755.612427 
	C688.514343,766.826538 699.788391,778.155029 711.121582,789.423584 
	C711.777039,790.075256 712.352661,791.089539 713.781372,790.531860 
	C714.001953,790.068054 714.387024,789.505920 714.546997,788.885742 
	C718.573914,773.273499 722.579102,757.655518 726.582703,742.037231 
	C727.253784,739.419189 725.919067,737.658264 724.164917,735.917236 
	C713.058533,724.893372 702.008606,713.812561 690.458313,702.293579 
M315.506989,247.256866 
	C311.952972,261.781128 308.490967,276.329010 304.777893,290.812500 
	C303.888092,294.283356 304.416626,296.767578 307.012238,299.305573 
	C317.964935,310.015198 328.753845,320.892212 339.631104,331.679291 
	C340.641022,332.680817 341.415344,334.169830 343.251953,334.012939 
	C344.711517,332.276703 345.081238,330.113098 345.598175,328.039825 
	C348.938843,314.640533 352.061218,301.183289 355.655090,287.852844 
	C356.708588,283.945282 356.078400,281.399719 353.217133,278.606079 
	C342.256958,267.904968 331.523163,256.972168 320.670410,246.160477 
	C319.672363,245.166229 318.874359,243.675858 316.784485,243.954422 
	C316.456116,244.763947 316.092621,245.660141 315.506989,247.256866 
M722.161255,714.338867 
	C725.933899,718.108215 729.797424,721.792297 733.447205,725.677063 
	C735.862061,728.247437 738.270569,729.041016 741.873047,728.071594 
	C755.380127,724.436462 768.990967,721.188782 782.543213,717.718750 
	C784.704834,717.165222 787.070984,716.936523 788.945374,715.322266 
	C788.567993,714.660400 788.407654,714.164368 788.079773,713.835205 
	C776.201843,701.911987 764.294006,690.018494 752.431458,678.080078 
	C750.516235,676.152588 748.435364,676.133240 746.004456,676.772095 
	C740.695374,678.167480 735.334351,679.364136 730.012207,680.711609 
	C719.298340,683.424377 708.596252,686.183655 696.993530,689.152893 
	C705.702148,697.867859 713.681824,705.853271 722.161255,714.338867 
M879.544861,536.083557 
	C882.540161,531.089478 885.372498,525.987000 888.593445,521.142944 
	C890.455872,518.341980 890.195740,516.116577 888.530945,513.396057 
	C881.148621,501.332764 873.946838,489.159088 866.593384,477.077881 
	C865.441895,475.185944 864.865967,472.705048 862.316528,471.828918 
	C861.875610,472.164032 861.355042,472.377045 861.121521,472.763458 
	C852.606445,486.858704 844.146606,500.987366 835.598083,515.062195 
	C834.174133,517.406677 835.265442,519.132812 836.397034,521.014832 
	C844.113220,533.848816 851.791687,546.705566 859.553284,559.511963 
	C860.346924,560.821472 860.750061,562.695251 863.329102,562.987000 
	C868.549133,554.321289 873.854980,545.513184 879.544861,536.083557 
M279.059204,677.360046 
	C266.279602,689.591858 253.858429,702.170410 241.161102,715.510681 
	C244.097244,716.470947 246.098190,717.257874 248.165970,717.780090 
	C261.552917,721.161011 275.001434,724.311584 288.322571,727.931946 
	C292.307373,729.014954 294.889435,728.106262 297.613525,725.310730 
	C307.026978,715.650146 316.615662,706.160461 326.115814,696.584045 
	C328.369965,694.311829 330.539307,691.955505 333.151947,689.213501 
	C315.882416,684.091736 299.160187,680.430542 282.534424,676.401611 
	C281.672119,676.192627 280.627197,676.737061 279.059204,677.360046 
M524.789978,841.745056 
	C523.652161,841.050964 522.417236,840.476013 521.393738,839.641663 
	C517.367737,836.360229 513.680603,836.624023 509.330597,839.531799 
	C501.998871,844.432861 494.267273,848.735413 486.707672,853.296082 
	C480.806183,856.856506 474.910553,860.426514 468.283722,864.432678 
	C482.533051,873.008606 496.045868,880.878174 509.251068,889.234009 
	C513.760864,892.087646 517.324463,891.808289 521.603577,889.161377 
	C533.645386,881.712830 545.849426,874.526917 557.952576,867.176758 
	C559.141174,866.454834 560.821411,866.052612 561.053040,863.539612 
	C549.318359,856.492065 537.362244,849.311523 524.789978,841.745056 
M316.252533,789.705505 
	C318.168488,793.060913 319.304443,789.880981 320.196259,788.999512 
	C331.574982,777.752869 342.823212,766.374390 354.169434,755.094604 
	C356.132935,753.142639 356.804688,751.285645 356.024567,748.437195 
	C354.001282,741.049744 352.459045,733.532227 350.572388,726.105347 
	C348.377533,717.465027 346.020508,708.865906 343.725922,700.218872 
	C342.839691,700.501038 342.444153,700.507446 342.241699,700.708435 
	C330.059967,712.799622 317.899353,724.911987 305.721344,737.006958 
	C303.928864,738.787170 304.055817,740.841003 304.605988,743.043152 
	C308.436127,758.374329 312.246490,773.710449 316.252533,789.705505 
M774.937805,250.496292 
	C759.366272,246.958023 744.202820,241.601288 727.923157,239.086319 
	C728.120117,240.839462 728.117065,241.678253 728.317139,242.465393 
	C732.290771,258.096741 736.304016,273.718048 740.262451,289.353241 
	C740.852661,291.684143 742.495239,292.349884 744.579285,292.852844 
	C754.279724,295.194000 763.952881,297.648041 773.637512,300.054657 
	C780.023132,301.641479 786.411804,303.216370 793.699158,305.019287 
	C793.190247,302.273468 792.957214,300.507172 792.529541,298.789307 
	C789.072388,284.901855 785.457458,271.052063 782.176147,257.123505 
	C781.286865,253.348541 779.551147,251.160828 774.937805,250.496292 
M751.624146,740.191650 
	C750.494934,740.477234 749.379395,740.924866 748.234253,741.020996 
	C742.634888,741.490967 740.133240,744.358215 738.972229,750.028564 
	C736.772583,760.771301 733.456055,771.280884 730.816895,781.940186 
	C729.729736,786.330933 727.866943,790.627808 728.115784,795.860291 
	C745.150940,791.642944 761.762695,787.544189 778.364197,783.404114 
	C780.605042,782.845276 781.308289,781.016846 781.817078,778.952942 
	C785.123352,765.541199 788.537354,752.156006 791.819397,738.738403 
	C792.506836,735.928223 793.675293,733.137390 793.335022,729.401123 
	C779.379272,733.026733 765.905090,736.527222 751.624146,740.191650 
M267.548950,345.951263 
	C274.936340,356.442383 283.734436,360.062683 296.711456,355.085449 
	C308.224640,350.669678 320.705841,348.777802 333.225098,345.655762 
	C332.483215,344.583893 332.197662,344.005157 331.766052,343.571930 
	C320.021790,331.783325 308.234650,320.037231 296.530792,308.208710 
	C294.340668,305.995239 291.974579,305.879883 289.215424,306.583588 
	C279.547241,309.049500 269.858795,311.435883 260.184296,313.877258 
	C253.987961,315.440948 247.802643,317.048309 240.329330,318.965179 
	C249.863953,328.416016 258.456757,336.933289 267.548950,345.951263 
M211.500000,571.029846 
	C218.819733,571.022888 226.141449,570.914490 233.458252,571.057739 
	C236.496048,571.117188 238.297012,569.970215 239.838791,567.349854 
	C247.429092,554.449341 255.215942,541.664673 262.889679,528.812927 
	C263.624969,527.581421 264.693726,526.417053 264.548584,524.805725 
	C264.217896,524.618225 263.945435,524.328796 263.671906,524.327820 
	C246.372803,524.263672 229.073410,524.253296 211.774612,524.147583 
	C209.185089,524.131775 207.932388,525.559631 206.763107,527.531250 
	C203.625198,532.822388 200.339386,538.025696 197.193024,543.311951 
	C191.867401,552.259705 186.603851,561.244385 180.832550,571.030212 
	C191.344986,571.030212 200.922485,571.030212 211.500000,571.029846 
M562.204346,186.779800 
	C550.216003,193.983032 538.286194,201.286743 526.198120,208.318542 
	C523.196350,210.064697 522.114197,212.087143 522.147217,215.494308 
	C522.300354,231.314957 522.208008,247.137909 522.254089,262.959869 
	C522.257690,264.186890 521.724243,265.635254 523.325195,266.825378 
	C537.104614,258.587555 550.887207,250.207657 564.836121,242.114349 
	C568.030334,240.261017 569.171021,238.082611 569.138611,234.521805 
	C568.999023,219.200745 569.078369,203.877762 569.037720,188.555588 
	C569.033875,187.118607 569.444519,185.544525 568.183655,184.238998 
	C565.997681,183.924301 564.598938,185.653091 562.204346,186.779800 
M739.473999,306.266052 
	C736.739929,305.703949 735.164734,307.509979 733.508179,309.170746 
	C724.449646,318.251709 715.411499,327.353119 706.309143,336.389893 
	C703.514893,339.164001 700.540161,341.756287 697.203308,344.843231 
	C698.934204,345.621033 699.487305,345.973846 700.091003,346.125610 
	C715.752869,350.063568 731.428528,353.947144 747.078552,357.931519 
	C749.974670,358.668854 751.831055,357.324432 753.671082,355.478363 
	C761.784302,347.338226 770.059631,339.353790 777.992371,331.042145 
	C781.712158,327.144684 786.270447,323.964447 789.501648,318.711182 
	C772.752319,314.514709 756.506226,310.444305 739.473999,306.266052 
M787.500061,524.199646 
	C780.440491,524.199646 773.380981,524.199646 765.726685,524.199646 
	C766.474304,525.836792 766.742004,526.604431 767.149536,527.288818 
	C775.154358,540.731934 783.213318,554.143005 791.158997,567.620911 
	C792.610107,570.082458 794.491577,570.979858 797.276672,570.966675 
	C813.426392,570.890198 829.576721,570.935242 845.726746,570.906677 
	C846.813965,570.904785 848.126953,571.237427 848.914185,569.398865 
	C840.503113,555.347717 831.935974,541.102539 823.455994,526.805664 
	C822.010315,524.368164 819.884888,524.176086 817.470215,524.184448 
	C807.813599,524.217957 798.156738,524.200073 787.500061,524.199646 
M543.646606,779.877014 
	C536.820984,775.875916 529.995300,771.874756 522.978027,767.761292 
	C522.592407,768.857056 522.301941,769.298584 522.301025,769.740723 
	C522.265991,786.705566 522.300598,803.670654 522.202759,820.635071 
	C522.186523,823.449951 523.739075,824.784302 525.842407,826.033142 
	C532.561768,830.022522 539.216431,834.120911 545.943481,838.097046 
	C553.310303,842.451233 560.729919,846.716125 568.292542,851.116638 
	C568.647888,850.040771 568.931824,849.580994 568.932800,849.120605 
	C568.969971,832.322205 568.937744,815.523438 569.035400,798.725464 
	C569.052673,795.755005 567.470215,794.229187 565.197083,792.878723 
	C558.192200,788.717102 551.230042,784.483459 543.646606,779.877014 
M676.445190,293.188721 
	C680.022217,306.773621 682.623535,320.625946 687.106995,334.105743 
	C688.068726,333.748962 688.644958,333.704834 688.957642,333.394867 
	C701.025391,321.431763 713.067810,309.443146 725.116943,297.461365 
	C726.886414,295.701752 726.769714,293.719360 726.186035,291.456696 
	C723.152466,279.696960 720.417419,267.856598 717.172485,256.156921 
	C716.060486,252.147415 716.201599,247.588272 712.103760,242.734482 
	C701.341431,253.997665 691.237915,265.298828 680.293396,275.716431 
	C674.865417,280.883087 673.491638,285.823059 676.445190,293.188721 
z"/>
<path fill="#000000" opacity="1.000000" stroke="none" 
	d="
M580.066650,552.923889 
	C565.546814,577.327026 544.244568,590.274658 516.372864,591.018127 
	C478.198792,592.036438 446.882385,563.577209 442.495026,525.236633 
	C438.334839,488.881042 461.417175,457.794891 491.106812,447.814850 
	C535.056030,433.041595 580.750427,460.214905 588.155334,505.728699 
	C590.835449,522.202087 587.733521,537.794617 580.066650,552.923889 
M482.476593,567.027527 
	C502.358429,579.558716 523.132874,580.547607 543.676331,569.760559 
	C570.105774,555.882935 581.130981,525.760010 571.523804,497.016296 
	C563.339050,472.528259 535.873535,453.462921 506.302795,458.197144 
	C481.890259,462.105621 462.554810,479.947235 456.861420,504.856842 
	C451.526703,528.197266 461.669403,553.212585 482.476593,567.027527 
z"/>
</svg>